<?xml version="1.0" encoding="utf-8"?>
<!DOCTYPE svg PUBLIC "-//W3C//DTD SVG 1.1//EN" "http://www.w3.org/Graphics/SVG/1.1/DTD/svg11.dtd">
<svg version="1.1" id="Ebene_1" xmlns="http://www.w3.org/2000/svg" xmlns:xlink="http://www.w3.org/1999/xlink" x="0px" y="0px"
	 viewBox="0 0 64 64" style="enable-background:new 0 0 64 64;" xml:space="preserve">
<style type="text/css">
	.st0{fill:#34B67A;}
	.st1{fill:#FFFFFF;}
	.st2{fill:#E6E6E6;}
	.st3{fill:#25374B;}
</style>
<title>module-info</title>
<path class="st0" d="M0,0h64v64H0V0z"/>
<g>
	<g id="Layer_2">
		<g id="Green_x5F_pacman_ghost">
			<path id="Body" class="st1" d="M32,7.1c-10.3,0-18.7,8.4-18.7,18.7v31.1l4.7-4.7l4.7,4.7l4.7-4.7l4.7,4.7l4.7-4.7l4.7,4.7
				l4.7-4.7l4.7,4.7V25.8C50.7,15.4,42.3,7.1,32,7.1z"/>
			<path id="Right_x5F_eye" class="st2" d="M46.5,24.4c-0.9-1.1-2.2-1.8-3.6-1.8c-2.6,0-4.7,2.1-4.7,4.7s2.1,4.7,4.7,4.7
				c1.5,0,2.8-0.7,3.6-1.8c-1.2-0.4-2.1-1.6-2.1-2.9C44.5,26,45.3,24.8,46.5,24.4z"/>
			<path id="Left_x5F_eye" class="st2" d="M34.1,24.4c-0.9-1.1-2.2-1.8-3.6-1.8c-2.6,0-4.7,2.1-4.7,4.7s2.1,4.7,4.7,4.7
				c1.5,0,2.8-0.7,3.6-1.8c-1.2-0.4-2.1-1.6-2.1-2.9C32,26,32.9,24.8,34.1,24.4z"/>
			<path id="Right_x5F_eyeball" class="st3" d="M47.6,27.3c0-1.1-0.4-2.1-1.1-2.9c-1.2,0.4-2.1,1.6-2.1,2.9c0,1.3,0.9,2.5,2.1,2.9
				C47.2,29.4,47.6,28.4,47.6,27.3z"/>
			<path id="Left_x5F_eyeball" class="st3" d="M35.1,27.3c0-1.1-0.4-2.1-1.1-2.9C32.9,24.8,32,26,32,27.3c0,1.3,0.9,2.5,2.1,2.9
				C34.7,29.4,35.1,28.4,35.1,27.3z"/>
		</g>
	</g>
</g>
</svg>
